<svg width="1200" height="1219" viewBox="0 0 1200 1219" fill="none" xmlns="http://www.w3.org/2000/svg">
<mask id="mask0_409_3640" style="mask-type:alpha" maskUnits="userSpaceOnUse" x="0" y="0" width="1197" height="1197">
<circle cx="598.033" cy="598.033" r="598.033" fill="#D9D9D9"/>
</mask>
<g mask="url(#mask0_409_3640)">
<path d="M979.606 1133.45C972.155 1075.41 939.214 977.764 919.214 951.489C897.253 922.862 888.234 913.842 814.9 889.136C810.979 869.528 796.469 820.117 779.214 799.332C752.94 759.724 681.175 750.705 659.606 755.411C659.606 755.411 543.528 714.626 409.802 714.626C367.449 724.038 318.43 743.254 291.763 783.646C273.724 810.313 294.116 818.94 285.096 843.254C282.744 849.528 227.842 880.901 205.489 899.724C195.293 907.96 183.92 928.744 176.077 955.803C160.391 1011.1 177.253 1087.57 157.645 1154.23C119.998 1282.86 43.5278 1321.29 43.5278 1321.29H1056.86C1056.08 1320.9 995.685 1255.8 979.606 1133.45Z" fill="white"/>
<path d="M973.725 1134.24C965.882 1082.86 950.196 1031.88 930.196 984.04C920.392 960.902 905.49 938.549 884.706 924.824C874.118 918.157 862.353 913.059 850.196 907.961C838.039 903.255 825.49 898.941 813.333 894.628C811.373 893.843 809.804 892.275 809.412 890.314C807.843 882.471 805.882 875.02 803.529 867.177C793.333 835.412 782.353 800.118 752.549 781.687C729.804 767.961 702.745 761.294 676.471 760.118C671.373 760.118 665.882 760.118 661.176 760.902H659.608C659.216 760.902 658.431 760.902 658.039 760.51C639.216 751.49 618.431 746 598.039 740.51C536.863 726.392 472.941 720.51 410.196 720.118C371.765 729.138 318.039 750.314 294.51 789.53C290.588 795.804 288.627 802.079 289.412 809.138C290.196 816.981 292.941 825.608 290.98 833.843C290.196 837.373 289.412 841.294 287.843 844.432C284.706 848.745 279.608 851.49 275.686 854.236C255.294 867.569 234.51 879.334 214.902 893.059C208.235 897.765 201.961 902.079 197.255 908.745C183.529 928.353 175.294 951.883 171.765 975.412C165.49 1023.26 171.765 1071.88 165.49 1119.73C158.431 1167.57 140 1213.84 114.118 1254.63C96.0784 1282.08 74.1176 1307.57 46.2745 1325.22L43.5294 1314.24H1056.86L1052.55 1324.04C1040.78 1310.71 1031.37 1296.2 1022.75 1280.9C996.078 1236.2 980.392 1185.61 973.725 1134.24ZM985.49 1132.67C989.804 1166 998.039 1198.94 1010.59 1230.31C1023.14 1261.29 1038.82 1291.49 1060.78 1316.98C1063.92 1320.51 1061.18 1327.18 1056.47 1326.78H43.1372C40 1326.78 37.2549 1324.04 37.2549 1320.9C37.2549 1318.55 38.4314 1316.59 40.3921 1315.8C46.6666 1312.27 52.9412 1307.18 58.8235 1302.08C110.196 1255.8 142.353 1187.18 152.941 1118.94C161.961 1055.02 145.098 986 173.725 925.216C180.392 911.098 188.627 896.196 201.961 887.177C226.274 869.138 252.941 855.804 276.863 838.157C277.255 838.157 277.255 837.765 277.255 837.765C276.863 838.157 276.471 838.941 276.471 839.334C278.824 833.843 279.608 829.138 278.824 822.863C277.647 815.02 275.686 804.432 278.431 796.196C279.608 791.491 281.961 787.177 284.314 783.647C312.549 741.294 362.353 722.471 409.804 711.883C423.137 712.275 436.863 709.922 450.196 709.922C468.627 709.922 487.451 712.667 505.882 715.02C558.824 723.255 609.804 737.373 661.961 748.745L658.431 748.353C670.588 746 681.961 747.177 693.725 748.745C769.02 760.118 794.51 793.059 814.902 863.255C817.255 871.098 819.216 878.941 821.176 887.177L817.255 882.471C854.902 895.804 897.255 907.961 921.176 942.863C929.804 953.451 936.078 966 941.569 978.549C961.569 1028.75 977.255 1079.33 985.49 1132.67Z" fill="black"/>
<path d="M361.569 875.413C390.589 937.374 435.687 989.923 489.413 1031.49C491.373 1033.06 489.413 1036.2 487.06 1035.02C439.217 1012.28 398.824 973.452 374.903 926.394C367.06 910.707 360.393 893.844 358.04 876.197C357.256 874.237 360.393 873.452 361.569 875.413Z" fill="black"/>
<path d="M820.785 888.354C821.962 953.844 795.295 1020.9 744.315 1063.26C743.138 1064.43 741.57 1064.04 740.393 1062.86C739.217 1061.69 739.609 1060.12 740.785 1058.94C752.158 1047.96 763.53 1036.59 772.158 1023.26C790.197 997.373 801.178 966.785 806.276 935.805C808.629 920.511 810.197 904.04 809.021 888.746C808.629 881.295 820.393 880.511 820.785 888.354Z" fill="black"/>
<path d="M589.804 1044.04C580.784 1075.8 573.333 1110.31 577.647 1143.26C578.823 1150.71 567.451 1152.67 565.882 1144.82C563.922 1126.78 566.274 1109.14 569.412 1091.88C572.941 1074.63 577.255 1058.16 583.137 1041.69C584.706 1037.77 591.372 1039.73 589.804 1044.04Z" fill="black"/>
<path d="M714.51 1038.16C727.451 1066 736.471 1095.02 743.53 1124.43C744.314 1127.57 742.353 1130.71 739.216 1131.49C736.079 1132.27 732.941 1130.31 732.157 1127.18C728.235 1105.22 723.137 1083.26 716.079 1061.69C713.726 1054.63 711.373 1047.57 708.628 1040.51C707.059 1036.98 712.549 1034.24 714.51 1038.16Z" fill="black"/>
<path d="M293.333 841.686C307.843 920.902 363.529 987.961 430.588 1030.71C453.333 1045.22 477.647 1057.76 502.745 1067.96C504.314 1068.75 505.098 1070.31 504.314 1071.88C503.922 1073.45 501.961 1074.24 500.784 1073.45C474.902 1064.04 449.804 1052.27 426.275 1038.16C378.431 1009.92 336.471 970.706 308.235 922.863C293.726 898.157 282.353 872.275 276.863 844.039C276.078 839.333 279.216 835.02 283.922 834.235C288.235 833.059 292.941 836.588 293.333 841.686Z" fill="black"/>
<path d="M566.273 1151.88C555.292 1150.71 547.449 1140.51 549.802 1129.53L554.116 1108.75C555.684 1100.51 563.528 1094.63 571.763 1095.8C579.998 1096.59 586.665 1103.65 586.665 1112.27V1133.45C587.057 1144.43 577.645 1153.06 566.273 1151.88Z" fill="black"/>
<path d="M747.059 1137.37C736.471 1141.29 725.098 1135.02 722.353 1124.04L717.255 1103.26C715.294 1095.02 719.608 1086.78 727.843 1083.65C735.686 1080.9 744.706 1084.43 748.235 1091.88L757.647 1111.1C762.353 1121.69 757.647 1133.84 747.059 1137.37Z" fill="black"/>
<path d="M928.235 1125.61C928.235 1125.61 950.196 1248.75 941.569 1320.9" stroke="black" stroke-width="5.1257" stroke-miterlimit="10" stroke-linecap="round" stroke-linejoin="round"/>
<path d="M416.077 827.569C410.587 811.883 408.234 795.805 409.41 779.334C409.41 777.765 410.587 776.981 412.156 776.981C413.332 776.981 414.508 778.157 414.508 779.334C415.685 794.236 419.999 809.53 427.058 822.471C430.587 830.314 418.822 835.412 416.077 827.569Z" fill="black"/>
<path d="M681.175 848.354C670.194 823.648 643.136 811.099 619.214 802.471C604.312 797.765 587.841 794.236 572.155 791.883C534.116 786.001 480.39 776.981 442.351 773.059C441.959 773.059 441.959 772.275 442.351 772.275C453.332 771.099 464.312 771.099 475.292 771.099C508.234 771.883 541.175 775.412 573.724 780.51C606.273 785.608 641.175 795.412 665.881 818.942C673.724 827.177 680.783 836.589 682.743 847.961C683.136 849.138 681.567 849.53 681.175 848.354Z" fill="black"/>
<path d="M717.648 982.137C709.413 1022.53 656.079 1046.84 566.275 1010.37C472.942 972.725 432.55 882.921 422.354 856.255C477.648 752.725 439.217 680.961 439.217 680.961C566.667 669.98 678.04 819 678.04 819L695.295 892.725C696.864 899 700.001 904.49 704.707 908.412C712.942 922.921 722.746 956.255 717.648 982.137Z" fill="white"/>
<path d="M420.395 857.431C427.846 846.059 432.552 832.726 435.689 819.784C441.571 792.726 443.532 765.275 443.924 737.824V727.627C442.748 717.431 439.218 706.843 435.297 697.431C430.199 684.882 448.63 677.039 454.512 689.588C455.297 691.157 455.297 693.902 455.297 695.471C456.473 748.804 458.826 817.431 425.101 861.745C422.748 864.098 418.042 860.569 420.395 857.431Z" fill="black"/>
<path d="M682.354 818.216C688.237 821.745 690.197 826.451 690.982 831.157C693.335 840.569 692.55 850.765 694.903 860.569C696.864 869.981 702.746 879 704.315 888.804C706.276 899 712.158 920.569 714.511 931.157C715.295 933.51 713.727 936.255 710.982 936.647C709.413 937.04 708.237 936.647 707.06 935.863C701.962 931.549 699.609 927.236 696.472 921.745C691.374 912.334 687.845 903.706 684.707 893.118C681.962 883.706 683.139 873.51 680.786 863.706C678.825 854.294 673.335 845.275 671.374 835.471C670.197 830.765 669.805 825.667 673.335 819.785C675.688 817.432 679.609 816.647 682.354 818.216Z" fill="black"/>
<path d="M710.591 921.745C635.689 917.823 574.512 894.294 514.905 788.02C565.101 832.333 624.316 849.196 686.669 857.039L694.905 893.117C696.473 899.392 705.885 917.823 710.591 921.745Z" fill="black"/>
<path d="M707.455 907.235C720.788 932.333 728.632 963.706 720.396 991.549C714.122 1011.16 696.083 1025.67 676.475 1031.16C630.985 1043.31 578.436 1024.1 538.043 1002.53C488.239 974.686 451.377 928.019 427.847 877.039C426.279 873.117 431.769 869.98 434.122 873.902C442.357 890.372 451.769 906.451 462.357 920.961C472.945 935.863 485.102 949.588 498.828 961.745C538.828 997.823 592.945 1020.18 647.063 1020.18C702.749 1018.61 723.926 989.196 710.985 935.078C709.024 926.451 705.886 917.431 701.573 909.98C699.22 906.843 705.102 903.314 707.455 907.235Z" fill="black"/>
<path d="M859.217 436.255C866.276 469.196 860.786 491.157 857.648 582.137C821.569 732.725 824.315 816.255 804.315 836.255C788.629 851.941 694.903 872.334 625.491 854.686C590.197 845.667 560.393 825.275 536.08 810.765C505.491 792.333 482.354 732.333 460.393 695.863C443.139 667.235 441.178 704.883 418.825 680.177C387.844 646.451 350.59 578.608 369.021 458.608C398.825 264.098 552.942 241.353 667.06 262.922C781.57 284.49 840.393 349.588 859.217 436.255Z" fill="white"/>
<path d="M438.04 714.687C424.315 691.941 404.707 673.118 392.158 649.589C354.119 578.216 346.276 491.549 368.237 413.902C414.119 248.412 580.393 224.098 724.707 272.726C805.491 300.177 862.354 368.412 870.59 454.294C871.374 481.745 864.315 507.236 863.923 534.294C861.962 605.667 839.609 674.294 830.982 742.922C829.021 764.491 829.021 787.236 825.884 809.196C825.099 813.902 824.315 818.216 822.746 823.314C819.217 833.902 811.374 841.353 802.746 847.236C770.197 867.236 733.335 870.765 696.472 872.726C619.609 875.863 552.158 853.51 506.276 789.589C504.707 787.236 507.844 784.49 509.805 786.843C561.178 841.745 622.746 859.392 695.688 855.863C726.668 854.294 792.942 848.412 806.668 818.216C813.335 793.51 813.335 767.628 817.256 741.745C821.57 711.157 833.335 668.412 840.393 638.216C848.237 604.098 854.903 569.589 855.295 534.687C855.688 517.04 855.688 499.392 855.688 481.745C856.472 464.098 852.942 448.804 848.629 431.941C832.942 364.883 784.707 309.196 719.609 284.49C655.688 259.785 581.57 253.51 516.08 275.079C449.413 296.255 403.923 353.51 386.668 420.177C377.648 453.118 372.942 487.628 370.589 521.745C368.629 556.255 372.158 591.549 385.884 623.706C395.688 648.02 411.766 669.196 430.59 686.843L449.021 706.059C457.648 713.902 444.315 724.098 438.04 714.687Z" fill="black"/>
<path d="M484.315 589.981C484.315 589.981 472.158 531.157 414.903 538.216C365.492 544.49 348.237 662.922 460.393 695.863" fill="white"/>
<path d="M455.297 644.491C446.277 639.393 440.002 630.765 439.61 620.177C440.002 612.334 441.179 603.314 439.218 595.471C438.042 588.02 430.198 586.059 424.316 586.451C418.042 587.628 414.12 595.471 412.944 601.746C412.944 602.138 412.551 603.314 412.551 603.706C412.159 605.667 409.022 605.667 408.238 603.706C403.14 588.412 414.512 571.549 430.983 573.51C454.12 575.079 457.257 599.393 452.944 617.824C450.591 625.667 453.728 632.726 458.042 639.393L458.826 640.569C460.787 642.922 457.649 646.059 455.297 644.491Z" fill="black"/>
<path d="M769.021 548.412C774.903 576.255 785.884 602.137 799.609 626.451C811.766 656.255 780.393 684.49 752.55 683.314C749.413 683.314 749.021 679 751.766 678.216C769.413 672.726 785.491 660.961 788.237 642.922C789.413 637.432 787.844 632.726 785.099 628.02C772.158 603.706 764.315 575.863 766.276 548.412C766.276 546.451 769.021 546.451 769.021 548.412Z" fill="black"/>
<path d="M482.353 590.373C473.334 567.235 453.726 545.275 427.451 545.667C425.098 545.275 421.177 546.059 418.824 546.059C412.157 546.451 406.667 548.804 401.569 553.51C376.471 578.608 380.785 622.922 401.177 650.765C408.236 660.569 417.255 669.196 427.451 676.255C437.647 683.314 449.02 688.804 461.177 693.51C463.922 694.294 462.745 698.608 460 698.216C433.726 692.726 408.628 679.784 391.373 658.216C364.706 626.059 359.216 572.333 390.981 540.961C398.039 534.686 407.843 529.98 417.647 529.98C420.785 529.98 425.49 529.196 428.628 529.98C445.098 530.765 460.785 539 470.981 551.941C480 562.922 485.098 576.255 486.667 589.588C486.667 591.941 483.138 592.726 482.353 590.373Z" fill="black"/>
<path d="M739.216 722.529C714.118 746.451 666.667 727.235 654.118 698.216C652.549 694.686 656.471 691.549 659.608 693.117C666.275 696.647 672.157 700.176 678.432 702.921C696.471 711.157 715.294 717.823 735.294 715.863C739.216 715.078 741.961 719.784 739.216 722.529Z" fill="black"/>
<path d="M622.746 588.412C613.334 588.02 606.275 580.177 607.06 570.765L607.452 559.785C607.844 550.373 615.687 543.314 625.099 544.099C634.511 544.491 641.57 552.334 640.785 561.746L640.393 572.726C640.001 581.746 632.158 588.804 622.746 588.412Z" fill="black"/>
<path d="M787.843 594.295C779.215 593.903 772.549 586.452 772.941 577.824L773.333 567.628C773.725 559.001 781.176 552.334 789.803 552.726C798.431 553.119 805.098 560.57 804.705 569.197L804.313 579.393C803.921 588.02 796.47 594.687 787.843 594.295Z" fill="black"/>
<path d="M658.04 567.236C645.099 558.608 630.981 552.726 615.295 555.863C610.197 556.647 605.099 558.216 601.962 561.746C600.785 563.314 598.04 562.922 598.04 560.569C598.432 552.726 605.099 547.628 611.373 544.491C623.53 538.216 640.393 539.393 651.373 547.628C655.295 549.981 668.628 564.491 661.569 567.628C660.001 568.412 659.217 568.02 658.04 567.236Z" fill="black"/>
<path d="M770.197 569.197C770.197 552.726 790.589 546.844 803.138 552.726C810.197 555.863 815.295 562.138 817.256 569.589C818.04 571.942 814.511 573.903 812.942 571.942C806.275 564.099 794.903 560.177 785.883 564.883C783.138 566.452 782.746 567.628 781.962 569.197C781.962 577.04 770.589 576.648 770.197 569.197Z" fill="black"/>
<path d="M676.864 502.53C685.099 505.275 693.334 497.824 691.766 488.804C690.981 484.098 689.02 479.392 685.099 475.863C673.334 465.275 624.707 455.863 595.295 469.589C569.413 482.138 639.217 489.981 676.864 502.53Z" fill="black"/>
<path d="M794.12 508.804C787.453 511.157 780.394 504.098 781.571 495.863C781.963 491.549 783.532 487.236 786.669 484.098C796.081 474.687 828.237 467.236 848.63 481.745C866.277 493.902 824.708 497.432 794.12 508.804Z" fill="black"/>
<path d="M685.099 636.647C685.099 636.647 648.236 659.784 606.667 659.392C565.099 659 560.001 626.451 559.608 608.804C559.608 608.804 565.099 634.294 590.197 643.706C614.903 653.117 685.099 636.647 685.099 636.647Z" fill="black"/>
<path d="M803.527 632.333C803.527 632.333 812.547 643.313 824.704 651.157C832.939 656.647 843.919 650.764 843.919 640.961C843.919 640.961 821.174 642.137 803.527 632.333Z" fill="black"/>
<path d="M698.822 531.941C677.645 529.98 624.312 525.667 603.92 523.706L588.233 522.529C575.292 521.745 565.096 532.725 562.743 545.274C561.959 549.196 561.959 555.863 561.959 559.784V575.863C561.959 585.667 561.567 595.863 565.096 605.275C571.371 627.235 591.371 644.882 614.9 642.137C617.253 641.745 631.763 640.176 634.508 639.784L666.273 636.255C676.469 635.471 685.88 632.726 694.9 627.235C707.449 619.784 719.606 608.412 718.822 592.333L719.606 576.647C720.39 557.039 725.88 533.902 698.822 531.941ZM699.998 519C718.429 520.569 730.978 539.784 729.802 557.431C729.802 559.784 729.018 574.686 728.625 577.431C728.625 580.569 727.841 594.686 727.449 597.431C725.488 624.098 695.684 642.922 671.371 646.451C658.822 648.02 632.547 651.549 619.998 653.118C616.861 653.51 612.547 653.902 609.41 654.294C607.841 654.294 604.312 653.902 602.743 653.902C569.41 649.588 548.233 615.471 549.018 583.706C549.018 578.608 549.018 565.274 549.018 559.784C549.018 557.039 549.018 549.98 549.41 547.235C550.586 533.51 558.037 520.176 570.586 512.725C576.076 509.588 582.743 508.02 589.41 508.412L605.488 509.98C625.096 512.333 679.214 517.431 699.998 519Z" fill="black"/>
<path d="M790.979 525.274C799.607 524.098 841.96 519.392 849.803 518.608C851.764 518.608 856.862 517.823 858.43 517.823C875.293 515.47 883.136 533.902 884.705 547.627C885.489 559.784 884.705 571.549 885.097 583.314C885.097 591.549 884.313 599.784 882.352 607.627C877.254 628.804 862.352 651.157 837.646 644.098C831.764 642.921 819.999 641.353 814.509 640.176L808.627 639C797.254 637.039 787.842 629.196 781.568 620.568C769.803 606.843 772.156 588.412 770.979 571.941C769.411 555.47 769.803 529.98 790.979 525.274ZM792.548 536.647C780.391 542.137 783.529 560.568 783.529 571.549L784.313 595.078C784.705 609.98 796.47 624.882 810.587 628.804C814.117 629.588 823.921 631.549 827.842 632.333L839.215 634.686C867.45 643.706 878.43 604.49 878.038 582.921C876.862 564.882 882.352 543.314 869.411 528.804C866.274 525.666 863.136 524.882 859.607 525.666C857.646 526.059 852.548 526.843 850.979 527.235C843.136 528.804 800.783 535.47 792.548 536.647Z" fill="black"/>
<path d="M555.293 561.745C552.156 568.804 549.411 568.02 543.921 568.02L532.548 567.628C518.038 566.843 501.96 565.667 487.45 563.706C479.607 562.53 471.372 561.353 463.528 559.392C460.391 558.608 458.43 555.471 459.215 552.333C459.999 549.588 462.352 547.628 465.097 548.02L487.842 549.196L510.587 549.98C518.038 550.373 537.254 550.765 544.705 551.157C548.626 551.157 552.156 551.549 556.077 550.373C557.646 549.981 559.215 550.765 559.607 552.333C559.999 553.118 559.607 553.51 559.607 554.294L555.293 561.745Z" fill="black"/>
<path d="M722.352 553.51C736.47 545.667 773.724 534.686 780.783 555.863C783.921 561.353 775.685 566.451 772.156 560.961C772.156 561.745 770.195 560.961 769.411 560.961C754.509 559.784 739.215 562.137 724.313 563.314C718.038 564.098 716.862 555.863 722.352 553.51Z" fill="black"/>
<path d="M1143.2 345.588C1381.24 804.02 962.804 1321.27 463.981 1195C240.059 1139.31 60.0589 945.196 22.804 717.353C-19.5489 490.686 82.804 247.157 274.177 118.922C536.53 -61.4704 900.059 -1.4704 1087.9 256.569C1089.08 257.745 1088.69 259.706 1087.12 260.883C1085.94 262.059 1083.98 261.667 1082.8 260.098C1056.92 226.765 1027.51 196.569 995.353 169.51C942.412 124.412 880.451 89.1179 814.961 65.1963C481.628 -55.588 115.745 145.196 42.804 493.824C-39.5489 884.412 292.608 1244.02 688.686 1190.29C994.177 1151.86 1221.24 869.902 1196.14 563.235C1190.65 489.118 1171.04 415.785 1138.49 348.334C1137.71 347.157 1138.49 345.588 1139.67 344.804C1140.84 344.02 1142.41 344.412 1143.2 345.588Z" fill="black"/>
<path d="M896.176 360.098C903.627 338.529 900.489 311.078 874.999 276.569C788.333 159.706 509.117 205.196 509.117 205.196C509.117 205.196 538.529 213.039 571.862 229.118C477.744 220.882 410.685 241.274 350.685 235C350.685 235 377.744 266.372 439.705 291.863C378.921 314.216 329.901 364.412 286.764 476.569C286.764 476.569 316.176 458.137 364.411 441.667C336.568 544.804 374.607 623.235 402.842 672.255C419.705 702.843 429.117 716.569 441.274 738.137C458.136 768.333 467.548 799.314 467.548 799.314C471.47 729.51 462.058 707.549 462.058 707.549C364.019 669.902 381.666 560.49 429.509 554.216C479.705 547.941 495.391 592.647 498.136 603.627C507.548 592.647 498.921 550.686 500.489 507.941C507.548 620.882 569.901 733.039 569.901 733.039C569.901 733.039 554.215 478.921 614.607 427.157C615.783 425.98 617.352 424.804 618.529 424.019C605.587 497.745 638.529 530.686 638.529 530.686C640.882 458.137 658.529 423.627 680.882 409.902C700.097 415.784 720.097 422.843 742.058 428.333C754.215 431.471 767.156 434.216 780.882 436.176C783.234 436.569 785.587 436.569 787.94 436.569C813.431 436.569 837.744 419.706 856.176 422.843C862.45 424.02 867.156 428.725 869.117 435C870.685 440.882 872.254 446.765 873.823 453.039C880.097 480.882 894.607 704.412 896.96 683.627C904.411 626.372 1040.1 435.392 896.176 360.098Z" fill="black"/>
<path d="M751.766 328.8C744.315 329 740.001 331 743.53 332.7C750.589 336.1 768.628 338 780.001 339.2C798.824 341.3 801.57 341.2 814.511 341.9C835.687 343 847.452 340.6 852.55 339.1C857.648 337.6 861.177 336.1 867.844 332.3C870.981 330.5 877.648 330.5 878.824 329C880.393 326.5 856.471 322.1 848.628 321.1C835.295 319.3 811.766 320.7 788.236 325.4C774.903 327.7 761.57 328.5 751.766 328.8Z" fill="black"/>
<path d="M795.293 788.02C787.842 798.216 783.921 800.961 777.254 800.569C769.803 800.177 763.529 788.412 741.568 788.02C723.529 787.628 694.117 797.431 656.862 805.275C613.332 814.294 536.47 778.216 519.607 724.098C514.901 708.804 510.98 693.118 507.058 679.784C505.882 675.863 500.783 674.686 498.431 677.824C495.685 681.353 492.94 684.49 489.803 687.235C485.881 691.157 483.529 696.647 483.529 702.137C483.529 709.196 483.921 715.471 483.921 719.784C486.666 754.294 490.98 765.275 506.666 787.628C522.352 809.98 577.254 870.373 648.627 875.863C720.391 880.961 759.999 875.079 799.999 829.196C836.078 787.628 837.254 701.353 837.254 701.353C818.038 759.392 805.097 774.294 795.293 788.02Z" fill="black"/>
<path d="M440.392 602.137C440.392 602.137 409.02 597.431 411.373 641.352C412.549 663.705 412.549 675.862 412.157 682.137C411.765 686.451 414.51 690.372 418.431 691.941C423.137 693.901 428.235 691.941 430.588 687.235C434.118 680.96 438.039 672.333 438.039 665.274C438.039 653.509 450.588 642.921 450.588 642.921C450.588 642.921 439.216 633.117 440.392 602.137Z" fill="white"/>
<path d="M439.216 603.313C439.216 603.706 439.608 604.098 440 604.098C440 604.098 440 604.098 439.608 604.098H438.824C420 605.666 414.118 622.137 414.902 639C415.294 649.98 416.079 660.961 415.686 671.549C416.471 677.431 412.941 685.274 418.824 688.412C422.353 690.372 427.059 688.804 428.628 684.882C432.157 677.823 435.686 670.764 435.686 662.921C437.255 653.902 443.137 646.843 449.412 641.353V644.49C441.177 635.863 439.216 624.098 438.039 613.117C438.431 610.372 438.431 606.059 439.216 603.313ZM441.961 600.568C443.137 611.549 443.137 622.921 447.843 632.725C449.02 635.47 450.981 638.608 453.333 640.568C454.902 641.745 454.902 644.098 453.333 645.274C447.843 650.372 443.137 656.647 442.353 663.706C442.353 672.333 438.824 680.568 434.902 688.019C431.765 694.686 422.745 698.215 416.079 694.294C411.765 691.941 408.628 687.235 408.628 682.137C408.628 678.215 409.02 675.078 409.02 671.157C409.02 660.176 408.235 649.588 407.843 638.608C407.843 631.549 408.235 623.313 411.373 616.255C415.294 605.274 427.451 597.823 439.216 599.784C440.392 599.784 441.569 600.176 441.961 600.568Z" fill="black"/>
<path d="M435.294 1066.45C448.235 1009.98 431.373 946.451 416.863 889.98C410.981 867.627 405.098 846.451 402.353 828.019C397.255 797.039 400.785 767.627 413.334 740.176C428.628 706.058 426.275 677.039 426.275 675.862L418.432 676.647C418.432 677.039 420.785 705.274 406.275 737.039C393.334 765.666 389.412 796.647 394.51 829.196C397.647 848.019 403.137 869.588 409.02 891.941C423.53 947.235 440 1009.98 427.451 1064.49C420.392 1094.69 434.118 1144.1 453.726 1193.51C456.863 1193.9 459.608 1194.29 462.745 1194.69C442.745 1145.27 428.628 1095.47 435.294 1066.45Z" fill="black"/>
<path d="M412.549 664.098C412.941 672.725 412.549 678.608 412.549 682.137C412.157 686.451 414.902 690.372 418.824 691.941C423.53 693.902 428.628 691.941 430.981 687.235C434.51 680.96 438.432 672.333 438.432 665.274C438.432 664.882 438.432 664.098 438.432 663.706C430.588 666.843 421.177 669.196 412.549 664.098Z" fill="white"/>
<path d="M413.726 665.666C414.118 671.156 414.51 676.254 414.51 681.745C414.118 684.098 414.902 686.451 416.471 688.411C421.569 693.509 428.628 690.372 430.588 684.098C433.726 677.823 436.471 671.156 436.471 664.098L439.216 666.058C430.588 667.627 421.569 669.98 413.334 666.451C413.334 666.451 413.726 666.058 413.726 665.666ZM411.765 662.137C412.549 662.137 414.118 662.529 414.902 663.313C421.961 668.411 430.981 666.058 438.039 662.137C439.216 661.353 441.177 662.529 440.785 664.098C440.392 673.117 436.863 681.745 432.157 689.588C427.843 695.47 418.824 695.862 413.726 690.764C411.373 688.411 410.196 684.49 410.588 681.353C410.588 674.686 411.373 668.411 411.765 662.137Z" fill="black"/>
<path d="M781.961 924.882C788.628 878.607 782.353 845.666 780 835.862C778.824 836.647 778.039 837.823 776.863 838.607C775.687 839.784 774.51 840.568 773.334 841.745C775.687 854.294 780 884.098 774.118 923.705C771.373 942.137 770.589 971.156 770.196 1004.88C769.412 1037.43 759.216 1118.61 747.059 1195.47C749.804 1194.69 752.549 1193.9 755.294 1193.51C767.451 1117.43 777.255 1037.82 778.039 1005.27C778.824 971.549 779.216 942.921 781.961 924.882Z" fill="black"/>
</g>
</svg>
